<?xml version="1.0" encoding="UTF-8"?>
<svg width="634px" height="414px" viewBox="0 0 634 414" version="1.1" xmlns="http://www.w3.org/2000/svg" xmlns:xlink="http://www.w3.org/1999/xlink">
    <title>Slice</title>
    <g id="Page-1" stroke="none" stroke-width="1" fill="none" fill-rule="evenodd">
        <g id="1589198297flowing-lines-grey-freesvg.org" transform="translate(-167.000000, 0.000020)" stroke="#FF5C5C">
            <g id="g7299" transform="translate(399.999990, 399.999990) scale(-1, 1) rotate(-180.000000) translate(-399.999990, -399.999990) translate(0.000000, 0.000000)">
                <path d="M794.93998,0 C741.489315,88.6319978 676.935983,179.939996 629.827984,272.22266 C591.446652,347.479991 565.402653,422.122656 563.118653,484.018655 C560.923986,545.04932 581.355985,594.861318 609.299985,635.789317 C637.074651,676.46265 670.041317,707.467982 687.487983,747.594648 C694.027983,762.667981 697.095983,780.47198 696.593316,799.99998" id="path7325" stroke-width="1.3333333"></path>
                <path d="M772.943981,0 C718.742649,91.9839977 653.83865,185.981329 609.070651,280.87066 C574.029319,355.199991 552.979986,428.930656 556.206653,487.962654 C559.493319,547.44932 585.755985,593.735985 617.878651,632.523984 C649.547984,670.683983 684.693316,699.883983 701.830649,739.897315 C708.955982,756.579981 711.062649,777.187981 708.394649,799.99998" id="path7327" stroke-width="1.3333333"></path>
                <path d="M752.082648,0 C696.285316,95.7013309 630.583984,192.481329 588.163985,289.973326 C556.211986,363.491991 540.20532,436.241322 548.79332,492.427988 C557.665319,550.247986 589.589319,593.074652 625.979984,629.642651 C661.43465,665.305317 698.805316,692.634649 715.647982,732.486648 C723.270649,750.570648 724.051982,773.955981 718.817315,799.99998" id="path7329" stroke-width="1.3333333"></path>
                <path d="M732.514648,0 C674.30265,99.7159975 607.369318,199.391995 567.318652,299.399993 C538.20132,372.219991 527.23332,443.907989 541.01332,497.311988 C555.515986,553.351986 592.978652,592.737319 633.639984,627.102651 C672.827983,660.201317 712.401316,685.689316 728.938648,725.371982 C736.959982,744.683981 736.091982,770.813314 727.994648,799.99998" id="path7331" stroke-width="1.3333333"></path>
                <path d="M714.382649,0 C652.997317,103.961331 584.387985,206.643995 546.714653,309.027992 C520.17732,381.26799 514.231987,451.773322 532.995987,502.515987 C553.123986,556.671986 595.959985,592.723985 640.886651,624.871984 C683.671983,655.463984 725.462649,679.057316 741.690648,718.553315 C750.042648,738.939982 747.223981,767.770647 736.039982,799.99998" id="path7333" stroke-width="1.3333333"></path>
                <path d="M697.734649,0 C632.514651,108.359997 561.810653,214.173328 526.49332,318.745325 C502.309321,390.525324 501.267987,459.783989 524.86132,507.950654 C550.518653,560.169319 598.577318,593.007985 647.73865,622.913318 C693.995983,651.051984 737.958648,672.75865 753.894648,712.037316 C762.511981,733.365315 757.521314,764.849314 743.118648,799.99998" id="path7335" stroke-width="1.3333333"></path>
                <path d="M682.591983,0 C612.990651,112.834664 539.790653,221.882661 506.791987,328.462658 C484.737321,399.88799 488.479988,467.813322 516.71732,513.53732 C547.806653,563.750653 600.883985,593.537318 654.225317,621.195984 C703.831982,646.92665 749.910648,666.76665 765.553314,705.822649 C774.377314,727.979982 767.006647,762.049314 749.305315,799.99998" id="path7337" stroke-width="1.3333333"></path>
                <path d="M668.909317,0 C594.506652,117.31733 518.450654,229.690661 487.713321,338.094658 C467.591988,409.257323 475.973321,475.782655 508.643987,519.202654 C545.00532,567.406652 602.967985,594.207985 660.365317,619.686651 C713.158649,643.105317 761.299981,661.085317 776.651981,699.918649 C785.63598,722.806649 775.735981,759.383981 754.723981,799.99998" id="path7339" stroke-width="1.3333333"></path>
                <path d="M656.62265,1.13686838e-13 C577.131986,121.755997 497.917321,237.507994 469.346655,347.563991 C450.989322,418.546656 463.799988,483.646655 500.730654,524.87332 C542.17732,571.067986 604.810652,595.073318 666.17465,618.366651 C695.107983,629.322651 722.143982,639.405317 744.618648,652.051984 C764.469314,663.253317 780.19998,676.34665 787.189314,694.321316 C796.302647,717.846649 783.754647,756.851981 759.461314,799.99998" id="path7341" stroke-width="1.3333333"></path>
                <path d="M645.614651,1.13686838e-13 C621.611984,35.8266658 597.501318,71.6639982 574.330652,107.799997 C518.398654,195.054662 469.807988,280.713326 451.761322,356.806658 C435.006656,427.677323 452.057322,491.318654 493.037321,530.49332 C539.36532,574.713319 606.486652,596.037318 671.65465,617.209318 C702.154649,627.123984 730.443982,636.241317 753.806648,648.17865 C774.254647,658.665317 790.345314,671.243983 797.15598,689.035983 C806.361313,713.129316 791.101314,754.467981 763.598648,799.99998" id="path7343" stroke-width="1.3333333"></path>
                <path d="M801.170647,735.130648 C793.92798,754.638648 782.04398,776.822647 767.199981,799.99998" id="path7345" stroke-width="1.3333333"></path>
                <path d="M636.013317,1.13686838e-13 C609.527985,38.4973324 583.055985,76.9386647 557.793319,115.698664 C500.550654,203.558662 451.441322,290.062659 435.031989,365.758658 C419.74399,436.570656 440.803989,498.757321 485.633321,536.003987 C536.626653,578.277319 607.990651,597.109318 676.82265,616.195985 C708.805316,625.106651 738.305315,633.254651 762.483981,644.558651 C779.114647,652.331984 792.858647,661.53465 801.170647,673.763983" id="path7347" stroke-width="1.3333333"></path>
                <path d="M801.170647,747.801315 C793.165314,764.105314 782.60798,781.77198 770.338647,799.99998" id="path7349" stroke-width="1.3333333"></path>
                <path d="M627.478651,1.13686838e-13 C598.506652,41.0533323 569.679986,81.9813313 542.35732,123.250664 C483.815988,211.694661 434.123989,299.053326 419.20399,374.370657 C405.242657,445.171989 430.083989,505.931987 478.557321,541.35732 C533.96932,581.758652 609.387985,598.193318 681.677316,615.307985 C715.083982,623.217318 745.666648,630.541318 770.642647,641.187984 C782.617314,646.297317 793.10398,652.165317 801.170647,659.36665" id="path7351" stroke-width="1.3333333"></path>
                <path d="M801.170647,756.022648 C793.23198,770.022648 783.693314,784.830647 773.050647,799.99998" id="path7353" stroke-width="1.3333333"></path>
                <path d="M619.917318,1.13686838e-13 C588.479985,43.4946656 557.341319,86.7813312 528.010653,130.42933 C468.207988,219.435995 417.89199,307.621326 404.32799,382.58799 C391.581324,453.407989 419.94399,512.794654 471.859988,546.507986 C531.42132,585.130652 610.665318,599.305318 686.217316,614.530651 C720.947982,621.509318 752.558648,628.034651 778.270647,638.065317 C786.750647,641.382651 794.494647,645.078651 801.170647,649.361317" id="path7355" stroke-width="1.3333333"></path>
                <path d="M801.170647,762.041314 C793.55598,774.266647 784.866647,787.01198 775.422647,799.99998" id="path7357" stroke-width="1.3333333"></path>
                <path d="M613.243985,1.13686838e-13 C579.398652,45.8053322 546.006653,91.3213311 514.72932,137.207997 C453.726655,226.753328 402.76799,315.738659 390.433324,390.37199 C378.786657,461.234655 410.457323,519.271987 465.577322,551.41332 C529.02132,588.347985 611.835985,600.422652 690.455983,613.851985 C726.398649,619.989318 758.971981,625.735984 785.370647,635.179984 C790.99198,637.193317 796.289313,639.379984 801.170647,641.791984" id="path7359" stroke-width="1.3333333"></path>
                <path d="M801.170647,766.618648 C793.954647,777.453314 785.978647,788.63998 777.467981,799.99998" id="path7361" stroke-width="1.3333333"></path>
                <path d="M607.361318,0 C571.190652,47.9733321 535.634653,95.5786643 502.505321,143.566663 C440.366656,233.606661 388.77599,323.353325 377.561324,397.67199 C366.917324,468.599988 401.622657,525.379987 459.733322,556.041319 C526.782653,591.377319 612.919985,601.509318 694.377316,613.257318 C731.446648,618.602651 764.913314,623.609318 791.92798,632.534651 C795.117313,633.585317 798.20398,634.693317 801.170647,635.866651" id="path7363" stroke-width="1.3333333"></path>
                <path d="M801.170647,771.219981 C794.38798,780.533314 787.078647,790.117314 779.347981,799.99998" id="path7365" stroke-width="1.3333333"></path>
                <path d="M602.229318,0 C563.837319,50 526.219987,99.5359975 491.339988,149.471996 C428.145323,239.973327 375.947991,330.426658 365.726658,404.45999 C360.881324,439.813322 366.290658,472.369322 380.761324,497.429321 C396.534657,524.72532 422.534656,545.023986 454.346655,560.362653 C524.723987,594.206652 613.903985,602.583985 697.986649,612.735985 C736.087982,617.342651 770.333314,621.737318 797.94398,630.122651 C799.030647,630.453318 800.10798,630.793318 801.170647,631.138651" id="path7367" stroke-width="1.3333333"></path>
                <path d="M801.170647,773.855981 C794.77198,782.338647 787.965314,791.046647 780.826647,799.99998" id="path7369" stroke-width="1.3333333"></path>
                <path d="M597.757318,0 C557.281319,51.865332 517.73332,103.182664 481.217321,154.906663 C417.058656,245.817327 364.269324,336.939992 354.965324,410.697323 C350.525325,446.019989 356.769324,478.327988 372.157324,502.965321 C389.03199,529.911987 416.289323,549.639986 449.441322,564.343986 C522.855987,596.809318 614.818651,603.551985 701.274649,612.283985 C739.279982,616.122651 773.442647,619.801318 801.170647,627.323984" id="path7371" stroke-width="1.3333333"></path>
                <path d="M801.170647,775.963981 C795.113313,783.778647 788.733314,791.78398 782.08398,799.99998" id="path7373" stroke-width="1.3333333"></path>
                <path d="M593.902652,0 C551.494653,53.5639987 510.163987,106.497331 472.146655,159.843996 C407.11999,251.13466 353.799991,342.850658 345.286658,416.362656 C341.234658,451.646655 348.194658,483.759988 364.417324,507.995987 C382.27199,534.64132 410.658656,553.851986 445.031989,567.967986 C521.151987,599.221318 615.646651,604.453318 704.235982,611.893318 C740.861315,614.935985 773.887981,617.939985 801.170647,624.239984" id="path7375" stroke-width="1.3333333"></path>
                <path d="M801.170647,777.674647 C795.417313,784.946647 789.397314,792.382647 783.15198,799.99998" id="path7377" stroke-width="1.3333333"></path>
                <path d="M590.599985,0 C546.439986,55.0826653 503.494654,109.459997 464.125322,164.253329 C398.326657,255.873327 344.535991,348.130658 336.717325,421.417323 C332.983992,456.681322 340.607991,488.589321 357.553324,512.491987 C376.269324,538.87732 405.694657,557.567986 441.129322,571.206652 C519.671987,601.338652 616.374651,605.311985 706.866649,611.562651 C742.271981,614.019985 774.321314,616.437318 801.170647,621.749318" id="path7379" stroke-width="1.3333333"></path>
                <path d="M801.170647,779.051981 C795.674647,785.882647 789.954647,792.861314 784.042647,799.99998" id="path7381" stroke-width="1.3333333"></path>
                <path d="M587.819985,0 C542.102653,56.4173319 497.725321,112.061331 457.161322,168.126662 C390.69199,260.029327 336.478658,352.753325 329.263992,425.847989 C325.815992,461.087988 334.013325,492.814654 351.583991,516.430654 C371.066657,542.563986 401.349323,560.874653 437.733322,574.050652 C518.371987,603.225318 617.019985,606.055985 709.163982,611.278651 C743.545315,613.206651 774.749314,615.170651 801.170647,619.733318" id="path7383" stroke-width="1.3333333"></path>
                <path d="M801.170647,780.154647 C795.890647,786.633314 790.41598,793.245314 784.773314,799.99998" id="path7385" stroke-width="1.3333333"></path>
                <path d="M585.527985,0 C538.46532,57.5653319 492.850654,114.283997 451.253322,171.441329 C384.217324,263.583993 329.635992,356.715991 322.938659,429.633323 C319.737325,464.851988 328.417325,496.421321 346.514658,519.79732 C366.651991,545.71332 397.674657,563.675986 434.853322,576.474652 C517.286654,604.815985 617.574651,606.685318 711.117316,611.045318 C744.622648,612.619985 775.122647,614.199985 801.170647,618.149318" id="path7387" stroke-width="1.3333333"></path>
                <path d="M801.170647,781.01998 C796.065313,787.221314 790.789314,793.545313 785.361314,799.99998" id="path7389" stroke-width="1.3333333"></path>
                <path d="M583.685319,0 C535.502653,58.5093319 488.861321,116.119997 446.414656,174.171996 C378.910657,266.51466 324.047992,359.967991 317.749325,432.749323 C314.741325,467.955988 323.817325,499.410654 342.365325,522.571987 C363.018658,548.327986 394.669323,565.975986 432.497323,578.477319 C516.390654,606.145318 618.039985,607.201318 712.723982,610.857318 C745.531981,612.107985 775.446647,613.423985 801.170647,616.918651" id="path7391" stroke-width="1.3333333"></path>
                <path d="M801.170647,781.661314 C796.19998,787.654647 791.07198,793.765313 785.805314,799.99998" id="path7393" stroke-width="1.3333333"></path>
                <path d="M582.283985,0 C533.21732,59.2493319 485.765321,117.563997 442.641322,176.311996 C374.781324,268.809327 319.659992,362.527991 313.707992,435.189322 C310.861326,470.381322 320.230659,501.747987 339.125325,524.74132 C360.194658,550.36532 392.314657,567.807986 430.659989,580.047985 C515.706654,607.167985 618.391985,607.654651 713.974649,610.710651 C746.234648,611.767985 775.705314,612.861318 801.170647,616.007985" id="path7395" stroke-width="1.3333333"></path>
                <path d="M801.170647,782.114647 C796.29598,787.96398 791.273314,793.92398 786.11998,799.99998" id="path7397" stroke-width="1.3333333"></path>
                <path d="M581.286652,0 C531.58532,59.7826652 483.549321,118.59733 439.945322,177.849329 C371.821324,270.45466 316.521325,364.366658 310.817326,436.941322 C308.063992,472.134655 317.691992,503.394654 336.811992,526.298654 C358.183991,551.818653 390.633324,569.119986 429.349323,581.171985 C515.194654,607.941318 618.659985,607.922651 714.874649,610.610651 C746.757315,611.478651 775.901314,612.447985 801.170647,615.373318" id="path7399" stroke-width="1.3333333"></path>
                <path d="M801.170647,782.385314 C796.353313,788.14798 791.393314,794.017313 786.30798,799.99998" id="path7401" stroke-width="1.3333333"></path>
                <path d="M580.694652,0 C530.607987,60.1039985 482.218655,119.218664 438.326656,178.775996 C370.050657,271.449327 314.666659,365.462658 309.078659,437.993322 C306.406659,473.173322 316.138659,504.415987 335.417325,527.23732 C356.963991,552.703986 389.633324,569.877319 428.562656,581.843985 C514.918654,608.354651 618.811985,608.113318 715.414649,610.551985 C747.059981,611.351985 776.010647,612.235985 801.170647,615.017318" id="path7403" stroke-width="1.3333333"></path>
                <g id="g7405" opacity="0.19999701" stroke-width="1.16266661">
                    <g id="g7463">
                        <path d="M0,674.469316 C34.5839991,671.271983 68.6706649,667.217317 101.947997,661.903983 C231.833328,641.107984 347.111991,601.369318 420.961323,537.714653 C493.713321,474.861321 528.067987,388.23999 543.730653,299.330659 C559.287986,210.967995 557.869319,124.86133 584.431985,53.509332 C591.639985,34.1906658 602.521318,16.1946663 616.678651,0" id="path7413"></path>
                        <path d="M0,705.335982 C46.2253322,700.541316 91.5679977,694.255983 135.286663,685.49865 C260.33866,660.401317 368.945324,613.713318 433.289323,544.41332 C498.087988,474.526655 521.815987,382.465324 530.30532,289.241326 C538.587987,197.419995 532.638653,109.814664 559.414653,39.0786657 C564.694653,25.1719994 572.239986,12.0946664 581.813319,0" id="path7415"></path>
                        <path d="M0,736.974648 C58.3613319,730.558648 115.28133,721.850649 169.306662,708.835982 C289.942659,679.71065 391.74799,626.074651 446.779989,551.346653 C503.369321,474.389321 516.73732,377.090657 517.866654,279.49466 C519.007987,184.370662 508.395987,95.2599976 535.32132,25.1653327 C538.707987,16.3746663 543.151986,7.97466647 548.56932,0" id="path7417"></path>
                        <path d="M0,768.690647 C70.9586649,760.815981 139.67733,749.701315 203.635995,731.722648 C320.281325,698.851983 415.185323,638.359984 461.166655,558.403986 C509.362654,474.435988 512.533321,372.069324 506.313321,270.081327 C500.302654,171.809329 485.086655,81.199998 512.161321,11.777333 C513.735987,7.75466647 515.563987,3.8279999 517.634654,0" id="path7419"></path>
                        <path d="M2.71199993,799.493313 C85.7319979,790.51598 165.426663,777.258647 237.926661,754.010648 C350.997325,717.665315 438.883989,650.477317 476.182655,565.490653 C515.88132,474.627988 509.161321,367.347991 495.587988,260.98666 C482.699988,160.250663 462.951988,68.6119983 489.527988,0" id="path7421"></path>
                        <path d="M191.059995,799.493313 C218.958661,792.777314 245.963994,784.90398 271.88666,775.593314 C381.778657,736.005315 462.703988,662.37465 491.602654,572.510652 C522.843987,474.965321 506.539987,362.878658 485.615988,252.223994 C467.187988,154.783996 444.539989,66.666665 464.075988,0" id="path7423"></path>
                        <path d="M297.154659,799.493313 C299.870659,798.461313 302.573326,797.41198 305.262659,796.345313 C412.34799,753.761314 486.353321,673.971983 507.206654,579.387986 C530.019987,475.381321 504.550654,358.635991 476.330655,243.782661 C453.223989,149.670663 427.929323,64.8839984 440.946656,0" id="path7425"></path>
                        <path d="M371.527991,799.493313 C456.802655,751.491981 511.089321,674.09865 522.82132,586.061319 C537.386653,475.863988 502.979987,354.594658 467.679988,235.659994 C440.711989,144.858663 413.038656,63.2253318 420.115989,0" id="path7427"></path>
                        <path d="M428.237323,799.493313 C494.835988,748.342648 533.61332,674.27865 538.26532,592.475985 C544.786653,476.378655 501.898654,350.722658 459.618655,227.861328 C439.651989,169.961329 420.814656,116.023997 410.074656,66.5533317 C404.94399,42.8293323 401.81999,20.4266662 402.08399,0" id="path7429"></path>
                        <path d="M474.310655,799.493313 C526.714653,746.761315 554.141319,675.601316 553.398653,598.594652 C552.14932,476.886655 501.118654,347.011991 452.113322,220.406661 C429.186656,161.150663 407.825323,106.271997 395.265323,56.1533319 C390.325324,36.3533324 386.874657,17.5 385.750657,0" id="path7431"></path>
                        <path d="M512.983987,799.493313 C554.253319,746.077315 573.053319,677.511983 568.083986,604.375985 C559.337319,477.366655 500.661321,343.454658 445.129322,213.293328 C419.373323,152.770663 395.53599,97.0213309 381.325324,46.2973322 C376.795991,30.1386659 373.318657,14.629333 371.359991,0" id="path7433"></path>
                        <path d="M546.12132,799.493313 C578.487986,745.943981 590.559985,679.70665 582.215985,609.803985 C566.345319,477.803988 500.335987,340.055991 438.638656,206.539995 C410.129323,144.84533 384.122657,88.2653311 368.254657,36.9946657 C364.302658,24.2066661 361.038658,11.8346664 358.706658,0" id="path7435"></path>
                        <path d="M574.847986,799.493313 C600.013318,746.150648 606.758651,682.01465 595.690652,614.851985 C573.091986,478.189321 500.178654,336.817325 432.629323,200.169328 C401.557323,137.379997 373.474657,80.039998 356.069324,28.2639993 C352.821325,18.5826662 349.979991,9.13999977 347.658658,0" id="path7437"></path>
                        <path d="M599.918652,799.493313 C619.193318,746.561315 621.662651,684.309316 608.413318,619.506651 C579.499986,478.509321 500.149321,333.741325 427.077323,194.174662 C393.669323,130.366663 363.606658,72.3466649 344.753325,20.1159995 C342.289325,13.2786663 340.035991,6.56799984 338.034658,0" id="path7439"></path>
                        <path d="M621.891984,799.493313 C636.345317,747.087981 635.369317,686.523983 620.326651,623.765318 C585.507985,478.773321 500.178654,330.833325 421.975989,188.586662 C386.38799,123.84933 354.466658,65.2119984 334.322658,12.5666664 C332.697325,8.32799979 331.157325,4.13866656 329.710658,0" id="path7441"></path>
                        <path d="M644.707984,799.493313 C654.391984,747.935981 648.05065,689.406649 631.366651,627.629318 C591.086652,478.971988 500.306654,328.105325 417.309323,183.417329 C379.709324,117.84133 346.206658,58.6266652 324.767992,5.62666653 C324.007992,3.74133324 323.265325,1.86399995 322.539992,0" id="path7443"></path>
                        <path d="M661.377317,799.493313 C667.691983,748.494648 659.35465,691.298649 641.473317,631.098651 C596.189318,479.110655 500.391987,325.597325 413.089323,178.681329 C373.839991,112.633331 338.927992,53.1519987 316.402659,0" id="path7445"></path>
                        <path d="M675.859983,799.493313 C679.457316,749.053315 669.49465,693.017316 650.609317,634.166651 C600.883985,479.195988 500.497321,323.301325 409.30399,174.395996 C369.829324,110.041331 334.734658,51.993332 311.189326,0" id="path7447"></path>
                        <path d="M688.331983,799.493313 C689.707983,749.583981 678.361316,694.554649 658.737317,636.851984 C604.982652,479.249321 500.663987,321.213325 405.957323,170.574662 C366.454658,107.705331 331.195992,50.9506654 306.805326,0" id="path7449"></path>
                        <path d="M698.906649,799.493313 C698.501316,750.063981 686.119983,695.883983 665.837317,639.158651 C608.619985,479.263988 500.801321,319.377325 403.04799,167.230662 C363.466658,105.693331 328.147992,50.0506654 303.150659,0" id="path7451"></path>
                        <path d="M707.703982,799.493313 C705.870649,750.485315 692.647983,697.014649 671.873317,641.099984 C611.677318,479.261321 500.895987,317.811992 400.578657,164.383996 C361.087991,103.941331 325.694659,49.2653321 300.182659,0" id="path7453"></path>
                        <path d="M714.813315,799.493313 C711.877316,750.841315 697.975983,697.941316 676.829316,642.669317 C614.218651,479.239988 500.967987,316.510659 398.550657,162.034663 C359.069324,102.527997 323.710659,48.6266655 297.830659,0" id="path7455"></path>
                        <path d="M720.290649,799.493313 C716.537315,751.115981 702.158649,698.651983 680.705316,643.882651 C616.169318,479.211988 501.089321,315.461325 396.974657,160.198663 C357.590658,101.395997 322.211992,48.1186655 296.050659,0" id="path7457"></path>
                        <path d="M724.165315,799.493313 C719.847982,751.313315 705.145316,699.161316 683.477316,644.746651 C617.633318,479.185321 501.099987,314.741325 395.846657,158.881329 C356.450658,100.614664 321.138659,47.7599988 294.805326,0" id="path7459"></path>
                        <path d="M726.482649,799.493313 C721.819982,751.438648 706.898649,699.474649 685.13865,645.263984 C618.419985,479.175988 501.145321,314.290659 395.169323,158.089329 C355.850658,100.121331 320.546659,47.5333321 294.085326,0" id="path7461"></path>
                    </g>
                </g>
            </g>
        </g>
    </g>
</svg>