<?xml version="1.0" standalone="no"?>
<!DOCTYPE svg PUBLIC "-//W3C//DTD SVG 20010904//EN"
 "http://www.w3.org/TR/2001/REC-SVG-20010904/DTD/svg10.dtd">
<svg version="1.0" xmlns="http://www.w3.org/2000/svg"
 width="260.000000pt" height="260.000000pt" viewBox="0 0 260.000000 260.000000"
 preserveAspectRatio="xMidYMid meet">
<metadata>
Created by potrace 1.11, written by Peter Selinger 2001-2013
</metadata>
<g transform="translate(0.000000,260.000000) scale(0.100000,-0.100000)"
fill="#000000" stroke="none">
<path d="M653 2237 c-12 -19 -10 -1887 2 -1888 41 -5 209 -3 218 3 13 8 17
158 4 158 -4 0 -5 5 -1 12 11 17 11 191 1 206 -5 6 -6 12 -1 12 5 0 9 16 9 35
0 19 -3 35 -7 35 -4 0 -5 6 -2 13 9 25 10 87 1 87 -5 0 -5 6 1 13 6 7 7 19 3
26 -5 7 -5 27 -2 45 4 17 5 42 4 56 -4 30 -4 32 -2 91 1 25 -1 51 -5 57 -3 6
-3 13 1 15 10 6 9 59 -1 75 -16 26 14 19 35 -9 13 -16 33 -40 44 -53 11 -12
31 -38 45 -56 41 -54 111 -142 149 -186 48 -54 60 -68 182 -224 59 -74 119
-149 135 -166 51 -54 104 -122 104 -132 0 -6 3 -12 8 -14 4 -1 26 -25 48 -53
l42 -50 128 2 c71 0 133 1 137 2 5 1 -2 14 -15 30 -12 16 -34 43 -48 61 -23
30 -54 67 -132 160 -16 19 -61 76 -100 125 -39 50 -84 107 -102 129 -38 48
-53 71 -37 62 6 -4 11 -3 11 1 0 5 16 15 36 22 53 19 165 86 157 94 -3 4 -1 7
5 7 22 0 121 109 161 177 63 108 93 210 95 323 0 100 -8 173 -25 218 -6 15
-12 34 -14 42 -7 32 -45 107 -76 150 -46 65 -183 193 -194 182 -3 -3 -5 0 -5
6 0 7 -6 12 -14 12 -8 0 -16 4 -18 8 -4 11 -89 49 -124 57 -16 4 -36 9 -44 12
-34 13 -70 14 -423 18 -270 2 -369 0 -374 -8z m767 -229 c64 -20 149 -68 183
-104 55 -59 100 -130 109 -174 2 -8 6 -17 10 -20 15 -11 30 -188 16 -196 -4
-3 -5 -10 -2 -17 2 -7 -2 -31 -10 -54 -8 -23 -12 -44 -9 -47 4 -3 1 -6 -5 -6
-6 0 -15 -15 -21 -32 -15 -44 -94 -127 -161 -170 -30 -20 -58 -36 -62 -37 -5
-1 -21 -4 -38 -7 -16 -4 -27 -10 -25 -14 3 -5 -6 -7 -20 -5 -14 1 -28 -1 -30
-5 -12 -20 -38 3 -112 95 -44 55 -86 107 -94 115 -18 18 -97 116 -124 154 -11
15 -28 37 -37 48 -10 12 -18 25 -18 30 0 5 -4 6 -10 3 -5 -3 -10 0 -10 7 0 7
-16 31 -35 52 -19 22 -32 43 -29 47 2 4 0 11 -6 14 -7 4 -8 11 -2 18 5 7 6 21
3 31 -4 11 -4 39 -1 63 4 24 3 46 -2 49 -5 3 -4 11 1 18 6 7 8 16 5 19 -9 8
-8 123 1 136 4 8 76 11 238 10 202 -1 240 -3 297 -21z"/>
</g>
</svg>
