<?xml version="1.0" encoding="UTF-8"?>
<svg width="137px" height="168px" viewBox="0 0 137 168" version="1.1" xmlns="http://www.w3.org/2000/svg" xmlns:xlink="http://www.w3.org/1999/xlink">
    <title>logo_light</title>
    <g id="Page-1" stroke="none" stroke-width="1" fill="none" fill-rule="evenodd">
        <g id="logo_light" transform="translate(1.000000, 1.000000)" fill-rule="nonzero">
            <g id="N" transform="translate(86.138895, 97.250580)" fill="#FFFFFF" stroke="#000000" stroke-width="0.5">
                <polygon id="Path" points="47.0372126 68.74942 40.7015881 68.74942 7.19957336 12.1322506 7.5835506 34.2784223 7.5835506 68.74942 0 68.74942 0 0 8.63948803 0 39.7416449 51.4176334 39.3576677 28.8863109 39.3576677 0 47.0372126 0"></polygon>
            </g>
            <g id="S" transform="translate(1.951884, 92.275715)" fill="#FFFFFF" stroke="#000000" stroke-width="0.5">
                <path d="M47.4211899,51.8990719 C47.4211899,57.6121423 45.1813226,62.1697602 40.7015881,65.5719258 C36.2218535,68.9740913 29.8542309,70.675174 21.5987201,70.675174 C13.4712017,70.675174 6.27162835,69.070379 0,65.8607889 L0.959943114,57.2911833 C7.74354112,61.3352668 14.7191278,63.3573086 21.886703,63.3573086 C27.3263807,63.3573086 31.5661294,62.3141918 34.6059493,60.2279582 C37.6457691,58.1417247 39.1656791,55.2691415 39.1656791,51.6102088 C39.1656791,49.1709203 38.4617208,47.1007347 37.0538042,45.399652 C35.6458877,43.6985692 33.2140318,42.2382057 29.7582365,41.0185615 L16.2230386,36.3967517 C5.98364541,32.8662026 0.863948803,26.9284609 0.863948803,18.5835267 C0.863948803,13.1914153 3.00782176,8.74613302 7.29556767,5.24767981 C11.5833136,1.7492266 17.4709647,0 24.958521,0 C32.6380659,0 39.4216639,1.38012374 45.309315,4.14037123 L43.5814174,12.5174014 C37.6297701,9.05104408 31.4541361,7.31786543 25.0545153,7.31786543 C19.7428301,7.31786543 15.727068,8.32888631 13.0072292,10.3509281 C10.2873904,12.3729698 8.92747096,15.0850735 8.92747096,18.487239 C8.92747096,21.0549111 9.77542072,23.1411446 11.4713202,24.7459397 C13.1672197,26.3507347 15.7750652,27.7308585 19.2948566,28.8863109 L31.2941455,32.8341067 C37.1817966,34.7598608 41.3415501,37.2472931 43.773406,40.2964037 C46.2052619,43.3455143 47.4211899,47.2130704 47.4211899,51.8990719 Z" id="Path"></path>
            </g>
            <g id="G" transform="translate(83.739038, 0.000000)" fill="#FFFFFF" stroke="#000000" stroke-width="0.5">
                <path d="M51.2609623,67.6902552 C45.5652998,69.6802011 39.9336336,70.675174 34.3659635,70.675174 C24.1265703,70.675174 15.8390614,67.5297757 9.50343683,61.2389791 C3.16781228,54.9481825 0,46.3464811 0,35.4338747 C0,24.5854602 3.11981512,15.9677108 9.35944537,9.58062645 C15.5990756,3.19354215 23.4866082,0 33.0220431,0 C39.1016829,0 44.2533776,0.866589327 48.4771273,2.59976798 L47.5171842,10.4953596 C42.52548,8.37703016 37.6937663,7.31786543 33.0220431,7.31786543 C25.5984831,7.31786543 19.6468357,9.75715391 15.1671012,14.6357309 C10.6873667,19.5143078 8.44749941,26.5112142 8.44749941,35.6264501 C8.44749941,44.3565352 10.8633562,51.1608662 15.6950699,56.0394432 C20.5267836,60.9180201 26.7184167,63.3573086 34.2699692,63.3573086 C36.8938137,63.3573086 39.9656317,63.0042537 43.4854231,62.2981439 L43.4854231,41.7888631 L30.814174,41.7888631 L30.814174,34.6635731 L51.2609623,34.6635731 L51.2609623,67.6902552 Z" id="Path"></path>
            </g>
            <g id="W" transform="translate(0.000000, 0.962877)" fill="#FFFFFF" stroke="#000000" stroke-width="0.5">
                <polygon id="Path" points="42.0455084 59.4095128 45.1173264 35.7227378 50.8769851 0 59.2284902 0 47.2292012 68.74942 38.0137473 68.74942 29.5662479 41.2111369 21.1187485 68.74942 11.9032946 68.74942 0 0 8.3515051 0 14.1111638 35.8190255 17.1829817 59.4095128 25.8224698 29.7529002 17.0869874 0 24.2865608 0 29.7582365 21.1832947 35.2299123 0 42.7174686 0 33.4060204 29.8491879"></polygon>
            </g>
            <g id="+" transform="translate(47.101209, 56.071539)" fill="#000000">
                <polygon id="Path" points="25.7264755 0 25.7264755 20.1241299 45.0213321 20.1241299 45.0213321 26.575406 25.7264755 26.575406 25.7264755 46.6032483 19.1988623 46.6032483 19.1988623 26.575406 0 26.575406 0 20.1241299 19.1988623 20.1241299 19.1988623 0"></polygon>
            </g>
        </g>
    </g>
</svg>