<?xml version="1.0" encoding="UTF-8"?>
<svg width="37px" height="43px" viewBox="0 0 37 43" version="1.1" xmlns="http://www.w3.org/2000/svg" xmlns:xlink="http://www.w3.org/1999/xlink">
    <title>logo_dark</title>
    <g id="Page-1" stroke="none" stroke-width="1" fill="none" fill-rule="evenodd">
        <g id="logo_dark" transform="translate(0.744000, 0.624000)" fill-rule="nonzero">
            <g id="N" transform="translate(23.536000, 24.240000)" fill="#000000" stroke="#FFFFFF" stroke-width="0.1">
                <polygon id="Path" points="11.76 17.136 10.176 17.136 1.8 3.024 1.896 8.544 1.896 17.136 0 17.136 0 -5.68434189e-14 2.16 -5.68434189e-14 9.936 12.816 9.84 7.2 9.84 -5.68434189e-14 11.76 -5.68434189e-14"></polygon>
            </g>
            <g id="S" transform="translate(0.488000, 23.000000)" fill="#000000" stroke="#FFFFFF" stroke-width="0.1">
                <path d="M11.856,12.936 C11.856,14.36 11.296,15.496 10.176,16.344 C9.056,17.192 7.464,17.616 5.4,17.616 C3.368,17.616 1.568,17.216 0,16.416 L0.24,14.28 C1.936,15.288 3.68,15.792 5.472,15.792 C6.832,15.792 7.892,15.532 8.652,15.012 C9.412,14.492 9.792,13.776 9.792,12.864 C9.792,12.256 9.616,11.74 9.264,11.316 C8.912,10.892 8.304,10.528 7.44,10.224 L4.056,9.072 C1.496,8.192 0.216,6.712 0.216,4.632 C0.216,3.288 0.752,2.18 1.824,1.308 C2.896,0.436 4.368,0 6.24,0 C8.16,0 9.856,0.344 11.328,1.032 L10.896,3.12 C9.408,2.256 7.864,1.824 6.264,1.824 C4.936,1.824 3.932,2.076 3.252,2.58 C2.572,3.084 2.232,3.76 2.232,4.608 C2.232,5.248 2.444,5.768 2.868,6.168 C3.292,6.568 3.944,6.912 4.824,7.2 L7.824,8.184 C9.296,8.664 10.336,9.284 10.944,10.044 C11.552,10.804 11.856,11.768 11.856,12.936 Z" id="Path"></path>
            </g>
            <g id="G" transform="translate(22.936000, 0.000000)" fill="#000000" stroke="#FFFFFF" stroke-width="0.1">
                <path d="M12.816,16.872 C11.392,17.368 9.984,17.616 8.592,17.616 C6.032,17.616 3.96,16.832 2.376,15.264 C0.792,13.696 5.68434189e-14,11.552 5.68434189e-14,8.832 C5.68434189e-14,6.128 0.78,3.98 2.34,2.388 C3.9,0.796 5.872,-2.84217094e-14 8.256,-2.84217094e-14 C9.776,-2.84217094e-14 11.064,0.216 12.12,0.648 L11.88,2.616 C10.632,2.088 9.424,1.824 8.256,1.824 C6.4,1.824 4.912,2.432 3.792,3.648 C2.672,4.864 2.112,6.608 2.112,8.88 C2.112,11.056 2.716,12.752 3.924,13.968 C5.132,15.184 6.68,15.792 8.568,15.792 C9.224,15.792 9.992,15.704 10.872,15.528 L10.872,10.416 L7.704,10.416 L7.704,8.64 L12.816,8.64 L12.816,16.872 Z" id="Path"></path>
            </g>
            <g id="W" transform="translate(0.000000, 0.240000)" fill="#000000" stroke="#FFFFFF" stroke-width="0.1">
                <polygon id="Path" points="10.512 14.808 11.28 8.904 12.72 -2.84217094e-14 14.808 -2.84217094e-14 11.808 17.136 9.504 17.136 7.392 10.272 5.28 17.136 2.976 17.136 0 -2.84217094e-14 2.088 -2.84217094e-14 3.528 8.928 4.296 14.808 6.456 7.416 4.272 -2.84217094e-14 6.072 -2.84217094e-14 7.44 5.28 8.808 -2.84217094e-14 10.68 -2.84217094e-14 8.352 7.44"></polygon>
            </g>
            <g id="+" transform="translate(12.776000, 14.976000)" fill="#FFFFFF">
                <polygon id="Path" points="6.432 0 6.432 5.016 11.256 5.016 11.256 6.624 6.432 6.624 6.432 11.616 4.8 11.616 4.8 6.624 0 6.624 0 5.016 4.8 5.016 4.8 0"></polygon>
            </g>
        </g>
    </g>
</svg>